<?xml version="1.0" standalone="no"?>
<!DOCTYPE svg PUBLIC "-//W3C//DTD SVG 20010904//EN"
 "http://www.w3.org/TR/2001/REC-SVG-20010904/DTD/svg10.dtd">
<svg version="1.0" xmlns="http://www.w3.org/2000/svg"
 width="1078.000000pt" height="506.000000pt" viewBox="0 0 1078.000000 506.000000"
 preserveAspectRatio="xMidYMid meet">

<g transform="translate(0.000000,506.000000) scale(0.100000,-0.100000)"
fill="#ffff" stroke="none">
<path d="M34 5026 l-34 -34 0 -2462 0 -2462 34 -34 34 -34 5322 0 5322 0 34
34 34 34 0 2462 0 2462 -34 34 -34 34 -5322 0 -5322 0 -34 -34z m816 -255 c14
-10 31 -36 39 -58 13 -36 12 -43 -5 -79 -27 -55 -81 -81 -134 -65 -72 21 -105
93 -73 159 33 68 112 88 173 43z m4650 14 c0 -8 -4 -15 -10 -15 -5 0 -10 7
-10 15 0 8 5 15 10 15 6 0 10 -7 10 -15z m-5064 -17 c34 -16 50 -56 46 -114
-2 -28 -46 -70 -77 -76 -106 -21 -173 101 -98 176 36 36 76 40 129 14z m803 8
c68 -36 68 -156 0 -192 -82 -42 -170 9 -169 98 1 87 89 135 169 94z m3921 -37
c0 -8 5 -7 16 2 12 10 20 10 35 1 15 -10 23 -9 39 0 35 22 55 0 58 -66 2 -32
-1 -56 -7 -56 -5 0 -11 24 -13 53 -3 44 -6 52 -23 52 -17 0 -20 -8 -23 -52 -2
-37 -7 -53 -17 -53 -10 0 -15 16 -17 53 -3 44 -6 52 -23 52 -17 0 -20 -8 -23
-52 -4 -76 -22 -66 -22 12 0 37 4 65 10 65 6 0 10 -5 10 -11z m268 -1 c7 -7
12 -35 12 -64 l0 -52 -47 2 c-46 1 -48 2 -48 31 0 27 4 31 34 35 19 3 36 11
39 17 6 19 -28 28 -49 14 -15 -9 -19 -8 -19 3 0 25 57 35 78 14z m72 -53 c0
-37 -4 -65 -10 -65 -6 0 -10 28 -10 65 0 37 4 65 10 65 6 0 10 -28 10 -65z
m60 55 c0 -6 8 -5 20 2 35 22 55 0 58 -66 2 -34 -1 -56 -8 -56 -5 0 -10 22
-10 50 0 36 -4 52 -15 56 -26 10 -45 -16 -45 -62 0 -24 -4 -44 -10 -44 -6 0
-10 28 -10 65 0 37 4 65 10 65 6 0 10 -5 10 -10z m-3300 -705 c0 -8 -7 -15
-15 -15 -8 0 -15 7 -15 15 0 8 7 15 15 15 8 0 15 -7 15 -15z m-1499 -48 c17 5
19 -2 19 -81 0 -73 -3 -89 -21 -107 -14 -14 -30 -19 -51 -17 -46 4 -47 26 -1
24 31 -1 39 3 41 20 3 18 -1 20 -25 17 -50 -8 -79 50 -59 115 9 26 44 44 65
32 8 -4 22 -5 32 -3z m177 -15 c17 -23 15 -97 -4 -116 -16 -17 -61 -21 -82 -8
-21 14 -32 69 -20 103 17 48 75 60 106 21z m346 22 c27 -10 19 -32 -9 -26 -40
7 -55 -13 -55 -74 0 -41 -4 -54 -15 -54 -12 0 -15 15 -15 75 0 60 3 75 15 75
8 0 15 -5 15 -11 0 -6 7 -3 16 5 17 18 24 19 48 10z m317 -4 c16 -9 19 -22 19
-80 0 -40 -4 -70 -10 -70 -5 0 -10 22 -10 49 0 61 -7 81 -29 81 -29 0 -41 -22
-41 -77 0 -29 -4 -53 -10 -53 -6 0 -10 32 -10 76 0 57 3 75 13 71 6 -2 21 -1
32 4 11 4 21 8 23 8 2 1 12 -4 23 -9z m299 0 c9 -5 19 -5 27 2 9 7 17 7 28 -2
17 -14 22 -150 5 -150 -6 0 -10 28 -10 65 0 49 -3 65 -14 65 -17 0 -26 -31
-26 -87 0 -24 -4 -43 -10 -43 -6 0 -10 28 -10 65 0 51 -3 65 -15 65 -12 0 -15
-14 -15 -65 0 -51 -3 -65 -15 -65 -12 0 -15 15 -15 74 0 69 2 75 23 79 12 2
24 5 27 5 3 1 12 -2 20 -8z m217 -11 c8 -7 13 -34 13 -74 l0 -62 -55 -2 c-49
-1 -57 2 -66 23 -17 36 3 65 51 72 26 4 40 12 40 22 0 11 -9 14 -45 10 -47 -6
-58 3 -27 22 19 12 68 6 89 -11z m328 7 c26 -19 36 -146 12 -146 -13 0 -17 14
-19 63 -3 59 -4 62 -28 62 -24 0 -25 -3 -28 -62 -2 -47 -7 -63 -17 -63 -12 0
-15 16 -15 76 0 70 2 76 19 71 10 -2 25 -1 32 4 19 12 22 11 44 -5z m338 3
c15 0 17 -11 17 -85 l0 -84 100 0 c60 0 100 -4 100 -10 0 -6 -43 -10 -109 -10
-63 0 -112 -4 -116 -10 -3 -5 -21 -10 -40 -10 -19 0 -37 5 -40 10 -4 6 -162
10 -441 10 -280 0 -434 4 -434 10 0 6 171 11 477 12 469 3 478 3 481 23 3 16
1 18 -9 8 -20 -20 -56 -15 -73 9 -38 54 -4 149 47 133 12 -4 30 -7 40 -6z
m168 -8 c19 -15 24 -29 24 -64 0 -24 -6 -51 -14 -60 -17 -21 -75 -22 -95 -1
-19 19 -21 93 -3 116 24 31 57 35 88 9z m-1591 -40 c0 -62 7 -81 31 -81 25 0
39 30 39 84 0 25 5 46 10 46 6 0 10 -32 10 -75 0 -43 -4 -75 -10 -75 -5 0 -10
5 -10 12 0 9 -3 9 -12 0 -7 -7 -21 -12 -33 -12 -12 0 -26 5 -33 12 -15 15 -16
138 -2 138 6 0 10 -22 10 -49z m900 -16 c0 -63 1 -65 25 -65 14 0 25 -4 25
-10 0 -6 -28 -10 -65 -10 -37 0 -65 4 -65 10 0 6 11 10 25 10 24 0 25 3 25 55
0 41 -4 55 -14 55 -8 0 -18 5 -21 10 -4 6 8 10 29 10 l36 0 0 -65z m330 -55
c0 -25 -4 -30 -25 -30 -20 0 -25 5 -25 23 0 28 7 37 32 37 13 0 18 -8 18 -30z
m-600 -790 c0 -7 -177 -10 -510 -10 -333 0 -510 3 -510 10 0 7 177 10 510 10
333 0 510 -3 510 -10z m1180 0 c0 -6 -63 -10 -170 -10 -107 0 -170 4 -170 10
0 6 63 10 170 10 107 0 170 -4 170 -10z m-2244 -172 c-74 -164 -88 -189 -102
-176 -9 9 99 228 113 228 9 0 6 -14 -11 -52z m1031 40 c-28 -71 -102 -218
-109 -218 -15 0 -8 22 40 126 26 57 53 104 61 104 7 0 11 -6 8 -12z m838 -8
c-15 -47 -97 -210 -106 -210 -5 0 -9 4 -9 9 0 21 100 221 110 221 7 0 9 -8 5
-20z m342 8 c-28 -71 -102 -218 -109 -218 -15 0 -8 22 40 126 26 57 53 104 61
104 7 0 11 -6 8 -12z m-1317 -228 c0 -6 -120 -10 -340 -10 -220 0 -340 4 -340
10 0 6 120 10 340 10 220 0 340 -4 340 -10z m840 0 c0 -6 -120 -10 -340 -10
-220 0 -340 4 -340 10 0 6 120 10 340 10 220 0 340 -4 340 -10z m670 0 c0 -6
-35 -10 -85 -10 -50 0 -85 4 -85 10 0 6 35 10 85 10 50 0 85 -4 85 -10z m1020
0 c0 -6 -120 -10 -340 -10 -220 0 -340 4 -340 10 0 6 120 10 340 10 220 0 340
-4 340 -10z m-3573 -132 c-28 -71 -102 -218 -109 -218 -15 0 -8 22 40 126 26
57 53 104 61 104 7 0 11 -6 8 -12z m630 -100 c-29 -61 -59 -114 -66 -116 -18
-6 -9 19 46 134 25 52 52 94 59 94 9 0 -5 -39 -39 -112z m380 100 c-28 -71
-102 -218 -109 -218 -15 0 -8 22 40 126 26 57 53 104 61 104 7 0 11 -6 8 -12z
m800 -100 c-29 -61 -59 -114 -66 -116 -18 -6 -9 19 46 134 25 52 52 94 59 94
9 0 -5 -39 -39 -112z m842 2 c55 -118 56 -120 41 -120 -10 0 -32 40 -85 156
-23 50 -30 74 -21 74 7 0 36 -49 65 -110z m168 -2 c-29 -61 -59 -114 -66 -116
-18 -6 -9 19 46 134 25 52 52 94 59 94 9 0 -5 -39 -39 -112z m842 2 c55 -118
56 -120 41 -120 -10 0 -32 40 -85 156 -23 50 -30 74 -21 74 7 0 36 -49 65
-110z m-3129 -130 c0 -6 -63 -10 -170 -10 -107 0 -170 4 -170 10 0 6 63 10
170 10 107 0 170 -4 170 -10z m1180 0 c0 -6 -92 -10 -255 -10 -163 0 -255 4
-255 10 0 6 92 10 255 10 163 0 255 -4 255 -10z m680 0 c0 -6 -63 -10 -170
-10 -107 0 -170 4 -170 10 0 6 63 10 170 10 107 0 170 -4 170 -10z m1010 0 c0
-6 -63 -10 -170 -10 -107 0 -170 4 -170 10 0 6 63 10 170 10 107 0 170 -4 170
-10z m-3573 -132 c-28 -71 -102 -218 -109 -218 -15 0 -8 22 40 126 26 57 53
104 61 104 7 0 11 -6 8 -12z m319 -40 c-74 -164 -88 -189 -102 -176 -9 9 99
228 113 228 9 0 6 -14 -11 -52z m689 32 c-15 -47 -97 -210 -106 -210 -5 0 -9
4 -9 9 0 21 100 221 110 221 7 0 9 -8 5 -20z m342 8 c-28 -71 -102 -218 -109
-218 -15 0 -8 22 40 126 26 57 53 104 61 104 7 0 11 -6 8 -12z m460 -100 c-29
-61 -59 -114 -66 -116 -18 -6 -9 19 46 134 25 52 52 94 59 94 9 0 -5 -39 -39
-112z m378 92 c-15 -47 -97 -210 -106 -210 -5 0 -9 4 -9 9 0 21 100 221 110
221 7 0 9 -8 5 -20z m342 8 c-28 -71 -102 -218 -109 -218 -15 0 -8 22 40 126
26 57 53 104 61 104 7 0 11 -6 8 -12z m319 -40 c-74 -164 -88 -189 -102 -176
-9 9 99 228 113 228 9 0 6 -14 -11 -52z m311 -60 c-29 -61 -59 -114 -66 -116
-18 -6 -9 19 46 134 25 52 52 94 59 94 9 0 -5 -39 -39 -112z m380 100 c-28
-71 -102 -218 -109 -218 -15 0 -8 22 40 126 26 57 53 104 61 104 7 0 11 -6 8
-12z m319 -40 c-74 -164 -88 -189 -102 -176 -9 9 99 228 113 228 9 0 6 -14
-11 -52z m-2986 -188 c0 -6 -92 -10 -255 -10 -163 0 -255 4 -255 10 0 6 92 10
255 10 163 0 255 -4 255 -10z m840 0 c0 -6 -63 -10 -170 -10 -107 0 -170 4
-170 10 0 6 63 10 170 10 107 0 170 -4 170 -10z m1690 0 c0 -6 -35 -10 -85
-10 -50 0 -85 4 -85 10 0 6 35 10 85 10 50 0 85 -4 85 -10z m-3575 -140 c-15
-47 -97 -210 -106 -210 -5 0 -9 4 -9 9 0 21 100 221 110 221 7 0 9 -8 5 -20z
m972 -92 c-29 -61 -59 -114 -66 -116 -18 -6 -9 19 46 134 25 52 52 94 59 94 9
0 -5 -39 -39 -112z m166 7 c48 -105 54 -125 38 -125 -7 0 -111 210 -111 225 0
3 6 5 13 5 6 0 33 -47 60 -105z m703 53 c-74 -164 -88 -189 -102 -176 -9 9 99
228 113 228 9 0 6 -14 -11 -52z m311 -60 c-29 -61 -59 -114 -66 -116 -18 -6
-9 19 46 134 25 52 52 94 59 94 9 0 -5 -39 -39 -112z m380 100 c-28 -71 -102
-218 -109 -218 -15 0 -8 22 40 126 26 57 53 104 61 104 7 0 11 -6 8 -12z m319
-40 c-74 -164 -88 -189 -102 -176 -9 9 99 228 113 228 9 0 6 -14 -11 -52z
m143 -58 c55 -118 56 -120 41 -120 -10 0 -32 40 -85 156 -23 50 -30 74 -21 74
7 0 36 -49 65 -110z m888 98 c-28 -71 -102 -218 -109 -218 -15 0 -8 22 40 126
26 57 53 104 61 104 7 0 11 -6 8 -12z m-3007 -228 c0 -7 -147 -10 -420 -10
-273 0 -420 3 -420 10 0 7 147 10 420 10 273 0 420 -3 420 -10z m840 0 c0 -6
-90 -10 -250 -10 -160 0 -250 4 -250 10 0 6 90 10 250 10 160 0 250 -4 250
-10z m340 0 c0 -6 -35 -10 -85 -10 -50 0 -85 4 -85 10 0 6 35 10 85 10 50 0
85 -4 85 -10z m680 0 c0 -6 -35 -10 -85 -10 -50 0 -85 4 -85 10 0 6 35 10 85
10 50 0 85 -4 85 -10z m1010 0 c0 -6 -120 -10 -340 -10 -220 0 -340 4 -340 10
0 6 120 10 340 10 220 0 340 -4 340 -10z m-3320 -505 c0 -33 1 -34 25 -23 21
9 28 8 45 -7 16 -14 20 -31 20 -82 0 -48 -3 -63 -15 -63 -10 0 -15 16 -17 63
-3 59 -4 62 -28 62 -24 0 -25 -3 -28 -62 -2 -47 -7 -63 -17 -63 -12 0 -15 20
-15 105 0 87 3 105 15 105 10 0 15 -11 15 -35z m3120 -68 l0 -103 -42 -1 c-57
-3 -78 17 -78 74 0 30 6 49 20 63 23 23 33 24 61 10 17 -10 19 -7 19 25 0 19
5 35 10 35 6 0 10 -41 10 -103z m1158 87 c24 -16 29 -53 11 -71 -8 -8 -7 -17
5 -34 21 -31 20 -45 -4 -69 -24 -24 -110 -29 -110 -6 0 11 10 13 38 9 67 -9
88 53 24 72 -39 11 -41 23 -4 27 21 2 28 9 30 31 3 26 1 27 -37 27 -57 0 -53
27 4 29 11 1 31 -6 43 -15z m156 6 c30 -11 42 -49 26 -80 -6 -12 -28 -39 -47
-61 l-35 -39 46 0 c25 0 46 -4 46 -10 0 -6 -27 -10 -60 -10 -37 0 -60 4 -60
11 0 6 20 34 46 62 33 37 44 57 42 76 -3 24 -7 26 -45 25 -61 -1 -57 29 4 35
6 0 23 -3 37 -9z m193 -11 c18 -15 17 -54 -3 -70 -14 -11 -14 -13 0 -21 24
-13 21 -75 -3 -88 -30 -16 -101 -13 -101 4 0 11 10 13 38 9 27 -4 42 -1 51 10
19 24 4 57 -30 64 -38 7 -37 19 2 27 25 5 30 10 27 28 -2 19 -10 24 -45 26
-44 3 -57 17 -25 25 24 7 72 -1 89 -14z m-4427 -14 c0 -21 5 -25 31 -25 17 0
28 -4 24 -10 -3 -5 -17 -10 -31 -10 -24 0 -25 -2 -22 -52 3 -49 5 -53 31 -56
36 -4 35 -22 -2 -22 -43 0 -61 23 -61 81 0 42 -3 49 -20 49 -11 0 -20 5 -20
10 0 6 9 10 20 10 13 0 20 7 20 18 0 10 3 22 7 25 13 14 23 6 23 -18z m168 -3
c2 -16 10 -22 28 -22 13 0 24 -4 24 -10 0 -5 -11 -10 -26 -10 -24 0 -25 -2
-22 -52 3 -46 6 -53 26 -56 32 -5 27 -22 -6 -22 -40 0 -52 17 -52 77 0 46 -3
53 -20 53 -11 0 -20 5 -20 10 0 6 9 10 20 10 15 0 20 7 20 26 0 31 23 28 28
-4z m1852 3 c0 -21 5 -25 30 -25 17 0 30 -4 30 -10 0 -5 -14 -10 -31 -10 l-30
0 3 -52 c3 -49 5 -53 31 -56 36 -4 35 -22 -1 -22 -40 0 -52 17 -52 77 0 46 -3
53 -19 53 -29 0 -35 18 -9 22 15 2 24 11 26 26 5 30 22 28 22 -3z m508 -3 c2
-16 10 -22 28 -22 13 0 24 -4 24 -10 0 -5 -11 -10 -26 -10 -24 0 -25 -2 -22
-52 3 -46 6 -53 26 -56 32 -5 27 -22 -6 -22 -40 0 -52 17 -52 77 0 46 -3 53
-20 53 -11 0 -20 5 -20 10 0 6 9 10 20 10 15 0 20 7 20 26 0 31 23 28 28 -4z
m1372 -62 c0 -83 1 -90 20 -90 11 0 20 -4 20 -10 0 -5 -25 -10 -55 -10 -30 0
-55 5 -55 10 0 6 9 10 20 10 18 0 20 7 20 75 l0 75 -25 -6 c-15 -4 -25 -2 -25
4 0 15 30 31 58 32 21 0 22 -3 22 -90z m-3520 30 c14 -14 20 -33 20 -64 0 -57
-21 -80 -67 -73 -32 6 -33 5 -33 -29 0 -19 -4 -34 -10 -34 -6 0 -10 42 -10
106 0 85 3 105 13 101 8 -3 20 -1 28 4 22 14 37 11 59 -11z m324 14 c26 -10
19 -32 -9 -26 -13 2 -32 1 -41 -2 -23 -9 -2 -32 35 -39 34 -7 47 -36 31 -67
-8 -15 -21 -20 -55 -20 -29 0 -45 4 -45 13 0 7 14 12 37 12 47 0 59 29 16 40
-38 9 -53 23 -53 51 0 34 43 54 84 38z m180 -15 c14 -11 26 -29 26 -40 0 -16
-7 -19 -49 -19 -56 0 -67 -10 -50 -41 9 -18 17 -21 50 -16 29 4 39 2 39 -9 0
-22 -83 -19 -102 4 -35 40 -27 110 15 130 32 15 41 14 71 -9z m194 4 c2 -9 -7
-13 -27 -13 -37 0 -51 -22 -51 -84 0 -34 -4 -46 -15 -46 -12 0 -15 15 -15 75
0 60 3 75 15 75 8 0 15 -5 15 -12 0 -8 7 -6 18 5 19 20 53 19 60 0z m318 -7
c7 -6 15 -21 19 -33 6 -22 4 -23 -49 -23 -48 0 -56 -3 -56 -19 0 -29 26 -44
66 -38 25 4 34 2 31 -6 -2 -7 -22 -13 -45 -15 -31 -2 -46 2 -61 17 -23 23 -27
70 -10 102 19 37 76 45 105 15z m178 18 c27 -10 19 -32 -9 -26 -40 7 -55 -13
-55 -74 0 -41 -4 -54 -15 -54 -12 0 -15 15 -15 75 0 60 3 75 15 75 8 0 15 -5
15 -11 0 -6 7 -3 16 5 17 18 24 19 48 10z m310 0 c26 -10 19 -32 -9 -26 -13 2
-32 1 -41 -2 -23 -9 -2 -32 35 -39 34 -7 47 -36 31 -67 -8 -15 -21 -20 -55
-20 -29 0 -45 4 -45 13 0 7 14 12 37 12 47 0 59 29 16 40 -38 9 -53 23 -53 51
0 34 43 54 84 38z m353 -15 c8 -7 13 -34 13 -74 l0 -62 -55 -2 c-49 -1 -57 2
-66 23 -17 36 3 65 51 72 26 4 40 12 40 22 0 11 -9 14 -45 10 -47 -6 -58 3
-27 22 19 12 68 6 89 -11z m191 4 c2 -9 -7 -13 -27 -13 -37 0 -51 -22 -51 -84
0 -34 -4 -46 -15 -46 -12 0 -15 15 -15 75 0 60 3 75 15 75 8 0 15 -5 15 -12 0
-8 7 -6 18 5 19 20 53 19 60 0z m318 -7 c7 -6 15 -21 19 -33 6 -22 4 -23 -49
-23 -48 0 -56 -3 -56 -19 0 -29 26 -44 66 -38 25 4 34 2 31 -6 -2 -7 -22 -13
-45 -15 -31 -2 -46 2 -61 17 -23 23 -27 70 -10 102 19 37 76 45 105 15z m495
5 c19 -15 24 -29 24 -64 0 -24 -6 -51 -14 -60 -17 -21 -75 -22 -95 -1 -19 19
-21 93 -3 116 24 31 57 35 88 9z m171 2 c24 -21 27 -143 3 -143 -10 0 -15 16
-17 63 -3 59 -4 62 -28 62 -24 0 -25 -3 -28 -62 -2 -47 -7 -63 -17 -63 -12 0
-15 16 -15 76 0 70 2 76 19 71 10 -2 25 -1 32 4 20 13 30 11 51 -8z m-2256
-48 c10 -30 21 -55 24 -55 3 0 14 25 24 55 10 32 23 55 31 55 11 0 8 -17 -12
-75 -32 -96 -52 -101 -81 -17 -11 31 -23 65 -27 75 -5 12 -2 17 8 17 11 0 22
-19 33 -55z m2564 30 c0 -18 -5 -25 -20 -25 -15 0 -20 7 -20 25 0 18 5 25 20
25 15 0 20 -7 20 -25z m-4166 -27 c14 -20 14 -24 -4 -43 -15 -16 -28 -19 -74
-17 -76 5 -71 22 7 24 l62 1 -65 7 -65 7 63 1 c79 2 74 21 -6 24 l-57 1 55 7
c30 4 58 7 62 8 4 1 14 -8 22 -20z m4166 -73 c0 -18 -5 -25 -20 -25 -15 0 -20
7 -20 25 0 18 5 25 20 25 15 0 20 -7 20 -25z m-4320 -285 l0 -180 -80 0 -80 0
0 180 0 180 80 0 80 0 0 -180z"/>
<path d="M5374 4666 c-18 -14 -18 -15 -1 -21 23 -9 47 1 47 20 0 19 -20 19
-46 1z"/>
<path d="M684 3944 c-11 -41 7 -79 36 -79 23 0 25 3 25 50 0 47 -2 50 -27 53
-22 3 -29 -2 -34 -24z"/>
<path d="M856 3954 c-11 -28 -6 -71 9 -84 37 -31 80 24 57 75 -13 29 -56 35
-66 9z"/>
<path d="M2045 3906 c-22 -16 -14 -46 13 -46 23 0 42 19 42 42 0 22 -28 24
-55 4z"/>
<path d="M2711 3947 c-13 -33 -2 -75 20 -82 26 -8 36 0 44 35 13 58 -44 100
-64 47z"/>
<path d="M2879 3943 c-20 -52 20 -103 56 -73 15 13 20 56 9 84 -10 27 -53 20
-65 -11z"/>
<path d="M3890 1066 c-14 -38 2 -81 30 -81 29 0 45 40 31 78 -13 35 -48 36
-61 3z"/>
<path d="M1375 1079 c-11 -16 -8 -80 3 -91 31 -31 75 31 53 78 -11 25 -45 33
-56 13z"/>
<path d="M1877 1084 c-15 -16 -5 -24 29 -24 24 0 34 4 32 13 -5 13 -50 22 -61
11z"/>
<path d="M2376 1075 c-4 -12 3 -15 34 -15 31 0 38 3 34 15 -4 8 -18 15 -34 15
-16 0 -30 -7 -34 -15z"/>
<path d="M3225 1026 c-22 -16 -14 -46 13 -46 23 0 42 19 42 42 0 22 -28 24
-55 4z"/>
<path d="M3726 1075 c-4 -12 3 -15 34 -15 31 0 38 3 34 15 -4 8 -18 15 -34 15
-16 0 -30 -7 -34 -15z"/>
<path d="M4229 1063 c-20 -52 20 -103 56 -73 15 13 20 56 9 84 -10 27 -53 20
-65 -11z"/>
</g>
</svg>
