<?xml version="1.0" standalone="no"?>
<!DOCTYPE svg PUBLIC "-//W3C//DTD SVG 20010904//EN"
 "http://www.w3.org/TR/2001/REC-SVG-20010904/DTD/svg10.dtd">

<svg version="1.0" xmlns="http://www.w3.org/2000/svg"
 width="100.000000pt" height="100.000000pt" viewBox="0 0 600.000000 600.000000"
 preserveAspectRatio="xMidYMid meet">

<g transform="translate(0.000000,600.000000) scale(0.100000,-0.100000)"
fill="#292A2F" stroke-linecap="round"
   stroke-width="50" stroke="rgb(255, 255, 255)">
<path d="M2811 5354 c-365 -38 -678 -142 -849 -281 l-42 -35 -44 21 c-157 77
-335 37 -442 -99 -82 -103 -102 -236 -51 -336 30 -59 92 -117 155 -146 40 -18
43 -22 37 -50 -49 -222 -57 -514 -25 -893 12 -143 23 -314 23 -380 l2 -120
-60 -6 c-65 -6 -165 -47 -203 -82 -49 -46 -68 -121 -37 -147 8 -7 15 -21 15
-31 0 -10 11 -31 24 -46 36 -41 92 -38 184 13 39 21 73 36 77 33 3 -4 -4 -127
-16 -275 -27 -333 -29 -645 -5 -794 43 -280 125 -465 273 -621 l35 -37 -38
-28 c-133 -103 -174 -156 -174 -229 0 -58 8 -72 78 -129 76 -62 125 -48 279
79 85 70 143 99 186 92 18 -3 71 -19 118 -35 212 -75 552 -114 812 -94 264 20
450 60 634 138 58 24 111 44 118 44 13 0 65 -49 147 -138 92 -101 146 -112
231 -47 44 33 67 75 67 120 0 45 -60 144 -124 202 l-64 58 65 80 c138 172 225
412 268 738 16 125 20 534 7 755 -4 63 -5 115 -4 117 2 2 31 -10 65 -26 100
-47 137 -37 182 52 30 61 31 93 5 137 -35 57 -163 122 -241 122 -15 0 -29 7
-33 16 -3 9 -6 149 -6 312 0 491 -21 787 -71 1036 -11 54 -19 100 -17 101 2 1
19 10 38 20 65 33 118 84 147 143 23 47 28 70 28 132 0 99 -36 179 -111 250
-75 71 -130 93 -229 94 -70 1 -88 -3 -149 -32 l-68 -32 -37 28 c-109 86 -289
164 -461 200 -190 41 -502 57 -699 36z m480 -34 c235 -24 443 -87 588 -177
165 -103 312 -280 378 -454 106 -284 139 -543 148 -1179 3 -228 14 -525 23
-660 24 -347 23 -856 -1 -1005 -67 -407 -195 -656 -424 -829 -253 -191 -599
-286 -1040 -286 -248 0 -441 29 -640 95 -304 101 -508 264 -627 500 -121 241
-151 568 -105 1135 26 316 30 630 11 845 -39 449 -44 537 -39 725 16 575 196
922 583 1120 143 73 403 144 619 168 114 13 405 14 526 2z m1054 -224 c67 -30
115 -74 148 -134 77 -141 48 -286 -75 -370 -74 -51 -76 -50 -114 62 l-34 99
21 34 c27 43 19 91 -20 135 -23 26 -35 31 -77 32 -46 1 -52 4 -102 58 l-54 57
42 21 c87 44 176 46 265 6z m-2560 -37 c22 -6 55 -18 73 -26 l33 -16 -48 -51
c-27 -28 -58 -63 -70 -79 -18 -24 -24 -26 -48 -17 -51 20 -104 12 -135 -18
-40 -41 -48 -92 -20 -137 12 -19 25 -35 28 -35 4 0 15 -6 24 -14 16 -12 15
-17 -6 -84 -12 -40 -25 -75 -29 -78 -12 -13 -98 39 -136 83 -51 57 -64 98 -59
181 11 193 210 341 393 291z m2822 -2079 c63 -31 103 -77 103 -117 0 -30 -10
-34 -41 -18 -35 19 -39 19 -39 0 0 -9 11 -21 25 -27 28 -12 30 -20 15 -49 -16
-29 -76 -25 -147 12 -60 31 -61 31 -67 83 -3 28 -6 75 -6 105 l0 54 48 -7 c26
-3 75 -20 109 -36z m-3018 -27 c0 -27 -4 -68 -7 -92 -7 -47 -3 -43 -132 -112
-42 -23 -88 -24 -112 -2 -25 22 -23 38 7 51 14 6 25 18 25 27 0 17 -25 21 -35
5 -3 -5 -15 -10 -26 -10 -14 0 -19 7 -19 25 0 75 126 153 248 155 l52 0 -1
-47z m2591 -1964 c97 -95 133 -199 84 -240 -8 -6 -15 -10 -17 -8 -1 2 -15 31
-32 63 -16 33 -36 62 -42 64 -18 5 -16 -33 1 -47 8 -7 22 -33 30 -58 20 -57 9
-73 -47 -73 -38 0 -45 6 -143 108 -57 59 -104 110 -104 114 0 4 8 9 18 12 9 3
51 33 92 65 41 33 80 60 87 60 6 1 39 -26 73 -60z m-2218 -21 c41 -29 97 -64
126 -77 29 -14 52 -27 52 -31 0 -3 -16 -12 -35 -19 -20 -7 -75 -44 -123 -83
-134 -108 -183 -127 -223 -87 -24 24 -20 40 23 109 17 27 27 53 23 59 -10 17
-22 5 -61 -65 -41 -74 -54 -73 -61 3 -4 42 -1 54 26 90 22 31 163 151 178 153
1 0 35 -24 75 -52z"/>
<path d="M3350 5088 c-129 -45 -238 -139 -289 -248 -22 -48 -25 -69 -26 -165
0 -101 2 -115 28 -168 88 -179 298 -276 508 -234 262 51 407 237 371 474 -7
42 -23 101 -37 130 -34 76 -115 157 -194 196 -61 29 -75 32 -181 34 -99 3
-124 0 -180 -19z m245 -9 c203 -37 336 -213 323 -424 -13 -198 -174 -342 -403
-362 -272 -23 -498 192 -455 434 16 93 45 149 115 219 113 114 265 162 420
133z"/>
<path d="M3202 4780 c-94 -57 -75 -230 28 -261 47 -14 79 -7 119 27 76 64 60
193 -29 239 -40 21 -79 19 -118 -5z m148 -135 c16 -19 3 -55 -20 -55 -25 0
-41 29 -29 52 12 22 32 23 49 3z"/>
<path d="M2283 5055 c-140 -30 -277 -132 -323 -240 -85 -199 -10 -441 168
-538 182 -99 443 -65 590 76 198 191 146 538 -98 662 -101 51 -221 65 -337 40z
m226 -30 c199 -47 312 -202 299 -409 -15 -238 -242 -399 -513 -364 -97 12
-181 55 -244 123 -70 78 -95 145 -95 265 -1 84 3 102 28 157 82 179 311 278
525 228z"/>
<path d="M2094 4741 c-36 -22 -64 -75 -64 -121 0 -117 130 -183 215 -109 43
38 60 93 45 148 -15 57 -69 101 -123 101 -23 0 -56 -8 -73 -19z m151 -156 c0
-23 -5 -30 -19 -30 -24 0 -41 27 -33 49 4 11 15 16 29 14 18 -2 23 -9 23 -33z"/>
<path d="M2910 4391 c-72 -22 -130 -77 -130 -122 0 -8 -18 -23 -39 -33 -84
-36 -134 -132 -111 -210 14 -46 60 -96 89 -96 18 0 21 -6 21 -45 0 -126 50
-215 120 -215 27 0 48 8 69 26 l31 26 31 -26 c39 -34 70 -41 112 -27 63 21 72
41 71 152 l-2 99 43 0 c82 0 153 80 139 156 -8 45 -68 114 -130 150 -32 19
-43 32 -48 59 -8 39 -51 85 -98 102 -37 13 -130 15 -168 4z m-105 -195 c26
-24 99 -46 153 -46 45 0 142 29 174 52 28 20 32 20 64 5 50 -24 112 -84 124
-121 13 -40 1 -76 -36 -111 -35 -33 -78 -32 -157 1 -91 39 -165 41 -256 10
-99 -35 -154 -34 -186 0 -37 40 -42 85 -14 141 21 42 76 93 100 93 4 0 20 -11
34 -24z m142 -332 c-3 -113 -4 -118 -31 -140 -33 -29 -77 -31 -100 -5 -34 38
-59 166 -38 198 6 10 135 58 165 62 4 1 6 -51 4 -115z m154 92 c36 -15 36 -16
43 -91 10 -107 2 -140 -39 -159 -46 -22 -59 -20 -94 15 -28 28 -31 37 -31 92
0 34 3 86 7 116 l6 53 36 -5 c20 -3 52 -12 72 -21z"/>
</g>
</svg>
